<svg width="80" height="80" viewBox="0 0 80 80" fill="none" xmlns="http://www.w3.org/2000/svg">
<g clip-path="url(#clip0_1_7519)">
<path d="M43.8338 76.0066C43.5212 76.9259 42.5252 79.1802 40.114 79.1802C37.3715 79.1802 36.4205 76.2129 36.3744 76.0878L36.2932 75.807C36.2932 75.807 38.655 76.0033 39.956 76.0033C41.2538 76.0033 43.4773 75.875 43.8371 75.807L43.8338 76.0066Z" fill="black"/>
<path d="M51.0301 74.5438L51.5928 74.6151C50.9214 76.3692 49.7159 78.3349 47.353 78.3349C45.0482 78.3349 43.9118 77.001 43.4357 76.1092L43.0331 75.8634C43.0331 75.8634 47.003 75.7351 51.0301 74.5438Z" fill="black"/>
<path d="M29.2815 74.5438L28.7188 74.6151C29.3868 76.3692 30.5979 78.3349 32.9684 78.3349C35.26 78.3349 36.4952 76.9308 37.0042 76.1092L37.2774 75.8634C37.2774 75.8634 33.314 75.7351 29.2815 74.5438Z" fill="black"/>
<path d="M42.0382 76.194C41.6641 76.7293 41.4129 76.7019 40.9708 76.7019C40.7416 76.7019 40.4125 76.8862 40.4157 77.2262C40.4256 77.4939 40.6439 77.7111 41.0026 77.7111C41.8188 77.7111 42.443 76.5801 42.6086 76.0986C42.6086 76.0986 43.0869 76.0788 43.2262 76.0645C43.2262 76.0645 42.3706 78.6227 40.1437 78.6227C37.9135 78.6227 37.0042 76.0952 37.0042 76.0952C37.0042 76.0952 38.8844 76.2093 39.9561 76.2093C41.0312 76.2093 41.7157 76.1995 42.0382 76.194Z" fill="url(#paint0_radial_1_7519)"/>
<path d="M29.5842 75.0665C31.0333 75.4504 32.0689 75.7751 34.5097 76.0713C34.5097 76.0713 34.4318 76.3181 33.9008 76.2984C33.6979 76.2852 33.6705 76.2348 33.6003 76.2227C33.4434 76.1942 33.2163 76.3532 33.2394 76.6176C33.2635 76.8041 33.4193 77.0356 33.9612 77.0356C34.5031 77.0356 35.1338 76.5946 35.4531 76.1821C35.4531 76.1821 35.7767 76.2578 36.1134 76.2743C36.1134 76.2743 35.0702 77.7311 33.0211 77.7311C30.7712 77.7311 29.9331 75.7115 29.5842 75.0665Z" fill="url(#paint1_radial_1_7519)"/>
<path d="M39.9288 63.0764C47.6998 63.0764 56.3089 58.3068 62.3532 51.4309C63.0114 50.6872 64.1139 49.2742 66.739 49.2742C69.3684 49.2742 72.8634 51.6711 72.4542 56.0327C72.1492 59.2096 67.6088 66.3772 59.8346 70.786C52.0625 75.2123 44.9025 76.159 39.9288 76.159C34.9507 76.159 27.7973 75.2123 20.0208 70.786C12.2476 66.3772 7.70832 59.2096 7.40556 56.0327C6.99638 51.6711 10.4925 49.2742 13.1164 49.2742C15.7481 49.2742 16.8549 50.6872 17.5109 51.4309C23.5465 58.3068 32.16 63.0764 39.9288 63.0764Z" fill="#FFE500" stroke="black" stroke-width="0.559459" stroke-miterlimit="3.863"/>
<path d="M39.8629 64.1338C32.0436 64.1338 23.146 59.5199 16.5927 52.0561C15.9257 51.2981 15.0766 50.3228 13.056 50.3228C11.8757 50.3228 10.5373 50.9547 9.64989 51.9321C8.98183 52.6583 8.2326 53.9385 8.4125 55.901C8.67248 58.582 12.9211 65.5204 20.4935 69.8293C26.5971 73.3012 33.1143 75.0553 39.8629 75.0553C46.6181 75.0553 53.1352 73.3012 59.2388 69.8293C66.8091 65.5204 71.0642 58.582 71.3144 55.901C71.5019 53.9385 70.7472 52.6583 70.0879 51.9321C69.1961 50.9547 67.8545 50.3228 66.6796 50.3228C64.6502 50.3228 63.8022 51.2981 63.1413 52.0561C56.5918 59.5199 47.6832 64.1338 39.8629 64.1338Z" fill="#DA020E"/>
<path d="M73.4995 25.2103L73.5269 23.3981C74.0853 23.8249 75.1351 23.8314 75.7494 23.1765C76.0292 22.8782 76.1882 22.4163 76.1652 21.9413C76.1389 21.4049 75.8953 20.8476 75.4949 20.4549C73.2264 18.2379 71.2112 16.0242 71.2112 16.0242C71.0028 15.6951 70.677 15.4571 70.4883 15.3759C70.2108 15.2432 69.2235 14.7923 68.471 15.9354C67.7919 16.9709 67.8929 18.431 68.0234 18.9641L70.1505 21.8635C70.8788 22.7871 72.9313 24.7518 73.4995 25.2103Z" fill="black"/>
<path d="M28.0352 6.41774C30.7129 5.51821 33.1614 4.77446 36.4611 4.48267L36.9613 4.20184C35.1195 2.74834 33.2897 1.75668 31.4676 1.75668C30.3235 1.75668 27.9957 2.53443 27.4768 6.64152L28.0352 6.41774Z" fill="black"/>
<path d="M51.8276 6.41774C49.1488 5.51821 46.7025 4.77446 43.4061 4.48267L42.8993 4.20184C44.7488 2.74834 46.5742 1.75668 48.3984 1.75668C49.5437 1.75668 51.8616 2.53443 52.3914 6.64152L51.8276 6.41774Z" fill="black"/>
<path d="M36.9033 4.3467C38.2504 1.75673 39.4823 0.819908 40.1712 0.819908C41.0225 0.819908 42.0251 2.17358 42.8127 3.92546L42.9784 4.32256L42.2862 4.26881C41.832 4.18324 40.5387 4.16679 40.0451 4.16679C39.5383 4.16679 38.4457 4.1668 37.7875 4.22823L36.9033 4.3467Z" fill="black"/>
<path d="M26.2812 62.7138L24.3307 66.2395C23.7417 67.2992 23.135 67.9717 22.1401 67.4012C21.1605 66.8473 21.3875 66.0443 21.9887 64.9495L23.9446 61.4194L22.3672 60.544L20.3004 64.2748C19.1629 66.3284 20.5944 67.602 21.7155 68.2196C22.9124 68.8822 24.6544 69.3747 25.782 67.3365L27.863 63.5892L26.2812 62.7138ZM51.3625 69.9776L50.7054 67.9548L52.6624 67.3229L52.3915 66.4815L50.4323 67.1167L49.875 65.3878L51.8781 64.7308L51.6082 63.8981L47.941 65.0906L49.9792 71.3565L54.0216 70.0456L53.755 69.2097L51.3625 69.9776ZM55.5518 61.8687L53.3195 63.1555L56.6247 68.8872L58.8483 67.6015C61.1464 66.2764 61.3647 64.2689 60.4597 62.6586C59.3704 60.7476 57.5725 60.7037 55.5518 61.8687ZM58.9251 63.6129C59.7621 65.0796 59.592 66.1491 58.3031 66.8874L57.6888 67.245L55.2622 63.0524L55.9226 62.6695C57.4705 61.7799 58.3491 62.5719 58.9251 63.6129ZM41.0673 66.2987L41.1869 67.1576L43.032 66.8965L43.8295 72.5613L45.5452 72.3233L44.7499 66.6618L46.5676 66.4095L46.4425 65.5385L41.0673 66.2987ZM39.5052 66.3523L37.7775 66.258L37.432 72.8398L39.1608 72.932L39.5052 66.3523ZM34.2595 65.5477L33.0561 70.0453L30.804 64.6207L29.4032 64.2445L27.6963 70.6124L29.2222 71.0172L30.4354 66.4823L32.7215 71.9529L34.0917 72.3226L35.792 65.9525L34.2595 65.5477Z" fill="#FFE500"/>
<path d="M25.1678 23.9913V54.8625L39.9288 64.347L54.6886 54.8625L54.7106 24.0385C54.2378 23.6216 53.256 22.7079 52.487 22.2296H27.3026C26.6652 22.6771 25.3883 23.7544 25.1678 23.9913Z" fill="#FFE500"/>
<mask id="mask0_1_7519" style="mask-type:luminance" maskUnits="userSpaceOnUse" x="25" y="22" width="30" height="43">
<path d="M25.1678 23.9913V54.8625L39.9288 64.347L54.6886 54.8625L54.7106 24.0385C54.2378 23.6216 53.256 22.7079 52.487 22.2296H27.3026C26.6652 22.6771 25.3883 23.7544 25.1678 23.9913Z" fill="white"/>
</mask>
<g mask="url(#mask0_1_7519)">
<g filter="url(#filter0_f_1_7519)">
<path d="M25.1679 11.452L25.1678 23.9914V54.8626L39.9288 64.347L54.6886 54.8626L54.7106 11.4992" stroke="#B54005" stroke-width="2.66667" stroke-miterlimit="3.863"/>
</g>
</g>
<path d="M45.8283 46.1409V44.9934C45.8283 44.9934 45.5233 44.5217 44.7675 44.5217C44.0139 44.5217 43.563 44.7488 43.563 44.9386C43.563 45.249 44.2377 46.1409 45.8283 46.1409ZM39.8761 35.984L41.0169 33.9918L41.911 35.984H43.3919C42.5011 36.8199 42.137 38.0847 42.137 38.9282V39.8475C42.137 40.238 41.9406 40.8842 41.9406 40.8842C41.9406 40.8842 43.2262 41.8638 43.4237 42.0338C43.506 42.0985 43.5959 42.138 43.5367 42.308C43.4347 42.5943 42.5615 42.9882 42.4726 43.0628C42.2752 43.2383 42.2236 43.3436 42.2752 43.5169C42.3377 43.6836 42.5011 43.7144 42.8357 43.5959C43.1736 43.4873 43.8735 43.1198 44.4604 42.8686C45.045 42.6141 45.8283 42.6788 45.8283 42.6788V41.5544H43.6168V37.9816L43.2263 37.3519L44.2015 35.6143L45.1822 37.3629L44.796 37.9816V39.8475H45.9226V37.9816L45.5343 37.3629L46.5128 35.6274L47.4869 37.3629L47.1019 37.9816V39.8475H48.2362V37.9816L47.8347 37.3629L48.8165 35.6274L49.795 37.3629L49.4044 37.9816L49.4231 41.5489H47.194V43.1988C47.6997 43.6738 48.1769 44.7488 48.1769 45.3818C48.1769 46.0301 47.7546 46.3043 47.7546 46.3043C47.8961 46.8133 47.8687 47.025 47.8083 47.4858C47.7546 47.9542 47.1699 48.6848 47.1699 48.6848V57.2116C47.1699 57.7908 45.8283 57.7337 45.8283 57.239V48.8767C45.0692 48.0463 43.0025 47.3936 43.0025 47.3936C42.2444 48.1516 41.7782 49.468 41.7782 49.468C42.1073 49.6984 42.6196 49.468 42.8127 49.2442C43.0025 49.0204 43.3919 48.9623 43.6168 49.1038C43.8373 49.2442 43.8921 49.298 43.8164 49.6271C43.7298 49.9737 43.5915 50.5277 43.5915 50.9149C43.5915 51.312 44.038 51.2232 44.3715 51.2528C45.045 51.312 45.1558 52.0646 45.0999 52.4847C45.045 52.907 44.8476 53.8033 44.8476 54.3605C44.8476 54.9123 44.8772 55.4696 44.932 55.7855C44.9902 56.0905 45.0999 56.4272 45.0692 56.8211C45.0352 57.3509 44.7094 57.4354 44.3715 57.0953C44.038 56.7607 39.3682 51.7826 39.3682 51.7826C39.0577 52.7951 40.35 54.5218 40.7668 55.0549C41.187 55.5881 41.1595 55.9797 40.792 56.345C40.4322 56.7059 39.7313 56.8989 39.5941 57.239C39.4515 57.5681 39.9287 58.5817 40.9105 59.8389C41.889 61.0938 39.7872 61.9363 38.5334 62.1875C37.2707 62.4354 37.2707 61.5688 37.3585 61.0938C37.4419 60.6232 37.4419 60.3369 37.4112 59.9233C37.3837 59.5021 36.9976 58.9185 36.4612 58.2197C35.9313 57.5176 35.9313 56.8792 36.1518 55.2524C36.3745 53.63 36.3219 52.5944 36.3219 52.5944C36.3219 52.5944 35.7624 52.6174 34.9506 52.5944C34.1433 52.5637 33.473 52.0953 33.416 50.1361C33.36 48.1824 33.3139 43.5169 33.1812 43.0277C33.0518 42.5439 32.5285 42.455 32.308 42.3903C32.0787 42.3333 32.0678 42.0031 32.2894 41.8846C32.873 41.6005 33.5728 40.8842 33.3139 40.4388C33.0518 39.9923 32.0239 40.0845 31.3361 40.4212C30.6461 40.7547 29.9188 41.4875 29.7312 41.6872C29.5502 41.8846 29.3933 41.8846 29.4131 41.6718C29.4361 41.4436 29.2858 40.3763 29.197 40.0066C29.0983 39.6336 28.7648 38.9282 28.6518 38.7418C28.541 38.5542 28.6518 38.4818 28.8405 38.5542C29.0215 38.6288 29.4361 38.801 29.8256 38.9041C30.2183 39.0226 30.5923 38.8295 30.7711 38.4631C30.9576 38.0847 31.3218 37.2872 31.5083 36.9307C31.6915 36.5785 31.9877 36.6575 32.2312 36.7112C32.4726 36.7683 32.6963 36.9175 32.919 37.0063C33.1406 37.0985 33.326 37.0809 33.405 36.9679C33.4807 36.8604 33.5728 36.8199 33.7067 36.5412C33.8372 36.2626 33.9996 36.3953 34.0204 36.5061C34.6874 40.5167 36.425 40.701 36.425 40.701C36.1639 41.369 35.5518 42.4342 35.407 42.7029C35.2501 42.9542 35.192 43.3118 35.1536 43.5893C35.124 43.8657 35.2501 46.515 35.4355 47.4858C35.6242 48.4577 36.2176 48.0792 36.4107 47.782C36.5895 47.4858 37.172 46.2528 37.172 46.2528C37.172 46.2528 37.3157 45.9171 37.3157 45.6385C37.3157 45.3576 36.8331 44.7488 36.7223 44.559C36.6071 44.366 36.2001 43.9963 36.2001 43.0628C36.2001 42.1325 37.0382 41.4875 37.3399 41.2429C37.6382 40.9983 37.6382 40.6593 37.5976 40.4552C37.4671 39.7356 36.7025 38.2218 36.335 37.6415C35.9588 37.0634 35.2326 35.9653 35.2326 35.9653H36.742L37.7139 33.9469L38.7714 35.9741L39.8761 35.984ZM39.6315 42.0985C40.124 41.2846 40.3302 40.4388 40.3302 40.4388H38.9063C38.9063 40.4388 39.1345 41.3043 39.6315 42.0985ZM38.1483 37.9947C38.2054 38.4116 38.5158 38.5706 38.7517 38.4489C38.9864 38.3194 38.9458 37.9816 38.7714 37.7117C38.6047 37.4473 38.258 37.1522 38.1516 37.1961C38.043 37.2411 38.111 37.749 38.1483 37.9947ZM40.9709 37.1961C40.8688 37.1522 40.5035 37.4473 40.3302 37.7117C40.1635 37.9816 40.1207 38.3194 40.3576 38.4489C40.5891 38.5706 40.8875 38.4083 40.9621 37.9947C41.0027 37.749 41.0827 37.2411 40.9709 37.1961Z" fill="url(#paint2_linear_1_7519)"/>
<path d="M26.3258 31.6876V33.5459H53.5591V31.6876H51.5508V31.9876H28.3341V31.6876H26.3258Z" fill="#DA020E"/>
<path d="M26.3274 23.3365H53.5555V30.7411H26.3274V23.3365Z" fill="#DA020E"/>
<path d="M31.0059 28.5913L33.0913 29.1036L34.2168 25.9673V25.1731L31.0059 28.5913ZM48.1923 30.4401V29.4742H46.2243V28.6624H47.8325V25.0819H46.3505L45.8437 24.0968L45.3489 25.0819H43.8625V28.6624H45.4773V29.4742H41.6061V28.6624H43.2164V25.0819H41.7322L41.2309 24.0968L40.7241 25.0819H39.2443V28.6624H40.8623V29.4742H36.911V28.6624H38.5246V25.0819H37.0382L36.5413 24.0968L36.0312 25.0819H34.5503V28.6624H36.1694V29.4742L33.043 29.484L29.9331 28.7578L30.5562 30.4401L48.1923 30.4401Z" fill="#FFE500"/>
<path d="M28.1901 6.126C30.8184 5.24622 32.8051 4.56061 36.0422 4.2732C34.5503 3.23765 33.2263 2.36116 31.7037 2.36116C30.9029 2.36116 30.2184 2.66722 30.0604 3.22668C29.9134 3.73568 30.3149 3.95727 30.4575 3.92327C30.6067 3.88487 30.7131 3.841 30.6769 3.70277C30.6385 3.55688 30.7515 3.18609 31.2605 3.18609C31.7783 3.18609 31.9735 3.66548 31.9735 3.99457C31.9735 4.32366 31.4514 4.87325 30.4915 4.87325C29.5503 4.87325 29.0676 4.24578 29.1038 3.66548C28.6497 4.33025 28.3853 5.00269 28.1901 6.126Z" fill="url(#paint3_radial_1_7519)"/>
<path d="M9.8748 21.863L12.0095 18.9637C12.1324 18.4306 12.23 16.9716 11.5477 15.936C10.8017 14.7919 9.81885 15.2438 9.53035 15.3766C9.34825 15.4577 9.01696 15.6947 8.81292 16.0249C8.81292 16.0249 6.76047 18.2847 4.50179 20.5082C4.18257 20.8253 3.83154 21.4045 3.80192 21.9409C3.7745 22.417 3.96646 22.8953 4.2429 23.1936C4.8605 23.8518 5.93994 23.8255 6.49172 23.3977L6.5301 25.2099C7.09834 24.7524 9.1475 22.7867 9.8748 21.863Z" fill="black"/>
<path d="M39.9286 17.6437C52.0831 17.6437 58.9985 29.0522 60.5079 31.0553C63.189 34.6337 66.4711 37.5385 70.2743 36.5786C75.8613 35.1492 75.5705 26.8736 75.5705 26.8736C74.2224 25.9028 71.9253 24.6808 67.737 18.7439C63.6354 12.9245 54.3539 4.30331 39.9286 4.30331C25.5001 4.30331 16.2207 12.9245 12.129 18.7439C7.93634 24.6808 5.63159 25.9028 4.29656 26.8736C4.29656 26.8736 3.99489 35.1492 9.58619 36.5786C13.3872 37.5385 16.6672 34.6337 19.3526 31.0553C20.8566 29.0522 27.7763 17.6437 39.9286 17.6437Z" fill="#FFE500" stroke="black" stroke-width="0.559459" stroke-miterlimit="3.863"/>
<path d="M39.9286 16.5604C51.6466 16.5604 58.6157 26.5001 61.136 30.0867C64.4713 34.5387 67.295 36.2193 70.0078 35.5293C73.9284 34.5311 74.4155 29.135 74.4681 27.5016V27.4369L74.4242 27.4029C73.042 26.4452 70.7296 24.8579 66.8551 19.3653C64.5437 16.0854 55.769 5.37557 39.9286 5.37557C24.0938 5.37557 15.3113 16.0854 13.0011 19.3653C9.15838 24.8228 6.74174 26.4869 5.44731 27.3755L5.39246 27.4205L5.39905 27.4775C5.4517 29.1142 5.93986 34.5388 9.85059 35.5293C12.5667 36.2193 15.3958 34.5387 18.7224 30.0867C21.2405 26.5001 28.2162 16.5604 39.9286 16.5604Z" fill="#DA020E"/>
<path d="M33.5631 8.25722C31.413 8.71246 29.9968 10.2976 30.4608 12.4466C30.7307 13.6072 31.7662 15.743 35.0418 15.0464C35.9512 14.8731 36.4426 14.5111 36.9187 14.0558L36.322 13.3702C36.0971 13.6203 35.7614 13.9845 35.0078 14.1414C33.4227 14.476 32.4804 13.1936 32.2456 12.0868C31.8968 10.4468 32.8522 9.31689 33.9317 9.08323C34.7028 8.9132 35.1701 9.12273 35.4663 9.23791H35.4762L35.6769 8.39763C35.157 8.1892 34.5328 8.05099 33.5631 8.25722ZM51.5447 17.7114C52.7745 18.4519 54.1161 18.3257 54.7435 17.2869C55.1999 16.5607 55.2043 15.9573 54.6558 14.8768C54.5143 14.5708 54.3289 14.3514 54.2049 14.0727C53.9625 13.6208 53.7387 13.2511 53.9471 12.9012C54.1775 12.5216 54.7106 12.4909 55.1933 12.786C55.699 13.092 55.9085 13.5977 56.0149 13.9433L56.808 13.601C56.5645 12.9494 56.2036 12.3647 55.3787 11.8766C53.9691 11.0275 52.8227 11.2513 52.3455 12.0466C51.8618 12.8463 51.9989 13.5122 52.3631 14.1945C52.3631 14.1945 52.5891 14.5817 52.7196 14.8461C53.0388 15.3792 53.4107 16.0517 53.1496 16.4718C52.8337 17.0017 52.2896 17.1169 51.7598 16.7878C51.0807 16.3599 50.9217 15.8619 50.7801 15.376L49.908 15.7489C50.1 16.4181 50.5509 17.1114 51.5447 17.7114ZM42.1568 7.91133L42.1074 10.5967L39.5252 10.5594L39.5635 7.86417L37.8325 7.83236L37.7173 14.4219L39.4516 14.4592L39.5065 11.4381L42.0932 11.4853L42.0438 14.5009L43.7759 14.5272L43.8889 7.93766L42.1568 7.91133ZM66.9562 28.8359C66.9683 28.8523 67.972 29.3482 69.0876 28.3466C70.0201 27.5085 69.7074 26.36 68.7333 25.2817L66.9375 23.2863L62.0417 27.6983L63.199 28.9818L65.1484 27.2332L65.7111 27.8683L64.477 30.6525L65.9547 31.8328L66.9562 28.8359ZM67.8305 25.5899C68.289 26.0989 68.2967 26.7034 67.7636 27.1729C67.2447 27.6511 66.5821 27.5414 66.0786 26.9886L65.7857 26.6606L67.4432 25.1632L67.8305 25.5899ZM60.19 23.9065L61.83 22.5451L63.1453 24.1105L63.8254 23.5434L62.5025 21.9714L63.8901 20.8031L65.2449 22.4168L65.9173 21.8562L63.4426 18.9065L58.3976 23.143L61.1225 26.3955L61.8026 25.8306L60.19 23.9065ZM58.2988 14.0046L57.7109 14.6496L59.093 15.8991L55.2624 20.1488L56.5546 21.3105L60.3798 17.0597L61.7444 18.2883L62.3302 17.6433L58.2988 14.0046ZM47.0186 14.4223L47.7163 12.4127L49.6568 13.0818L49.9453 12.2459L48.0015 11.5779L48.5928 9.85672L50.5926 10.5423L50.8734 9.71082L47.2303 8.45697L45.089 14.6977L49.104 16.0722L49.3892 15.2407L47.0186 14.4223ZM26.1552 11.1938L28.63 15.1386L23.1198 13.0817L21.8934 13.8518L25.3873 19.4497L26.7179 18.6116L24.2267 14.6263L29.7939 16.693L30.9961 15.9394L27.4957 10.3448L26.1552 11.1938ZM18.4478 17.1547L17.3212 18.3636L20.4794 24.6438L21.2506 23.8188L20.3927 22.1481L21.9175 20.5082L23.6464 21.2409L24.9167 19.8807L18.4478 17.1547ZM21.1113 20.1451L19.9671 21.3737L18.7912 19.1139L21.1113 20.1451ZM14.7258 21.1399L13.4993 22.6L15.7909 27.3389L10.8765 25.7297L9.81897 26.9824L14.8684 31.2222L15.6351 30.3117L12.0667 27.3082L16.8495 28.8659L17.353 28.2692L15.0724 23.6992L18.6562 26.7038L19.7751 25.3797L14.7258 21.1399Z" fill="#FFE500"/>
<path d="M7.0116 24.4976L7.0061 23.0441C9.48637 20.7668 10.6558 18.4785 10.6558 18.4785C10.6558 18.4785 9.74417 18.1351 9.33609 17.6163C9.13425 17.3278 9.05636 16.934 9.09036 16.6696C9.16935 16.1737 9.55548 15.9225 9.68712 15.8655C9.97233 15.7426 10.5022 15.464 11.0924 16.2758C11.7209 17.1544 11.5553 18.8218 11.4686 19.2058C11.4686 19.2058 10.3124 21.2187 7.0116 24.4976Z" fill="url(#paint4_radial_1_7519)"/>
<path d="M9.75637 18.7438C9.42179 19.3273 8.57821 20.7359 6.44458 22.7357C6.09026 23.068 5.2061 23.35 4.70478 22.7872C4.5172 22.5689 4.39324 22.2629 4.41189 21.9074C4.43602 21.4961 4.68284 21.0178 4.93076 20.8072C5.36077 20.4441 7.19382 18.5935 8.49703 17.1378C8.53323 17.4032 8.7614 17.8475 8.7614 17.8475C8.94131 18.0954 9.16071 18.452 9.75637 18.7438Z" fill="url(#paint5_linear_1_7519)"/>
<path d="M39.8629 64.1338C32.0436 64.1338 23.146 59.5199 16.5927 52.0561C15.9257 51.2981 15.0766 50.3228 13.056 50.3228C11.8757 50.3228 10.5373 50.9547 9.64989 51.9321C8.98183 52.6583 8.2326 53.9385 8.4125 55.901C8.67248 58.582 12.9211 65.5204 20.4935 69.8293C26.5971 73.3012 33.1143 75.0553 39.8629 75.0553" fill="url(#paint6_linear_1_7519)"/>
<path d="M39.8629 64.1338C47.6822 64.1338 56.5798 59.5199 63.1331 52.0561C63.8001 51.2981 64.6491 50.3228 66.6698 50.3228C67.8501 50.3228 69.1884 50.9547 70.0759 51.9321C70.744 52.6583 71.4932 53.9385 71.3133 55.901C71.0533 58.582 66.8047 65.5204 59.2323 69.8293C53.1287 73.3012 46.6115 75.0553 39.8629 75.0553" fill="url(#paint7_linear_1_7519)"/>
<path d="M61.1361 30.0866C64.4715 34.5387 67.2951 36.2193 70.0079 35.5293C73.9285 34.531 74.4156 29.135 74.4683 27.5016V27.4369L74.4244 27.4029C73.0422 26.4452 70.7297 24.8579 66.8552 19.3653" fill="url(#paint8_linear_1_7519)"/>
<path d="M18.7323 30.0866C15.3969 34.5387 12.5733 36.2193 9.86046 35.5293C5.93985 34.531 5.4528 29.135 5.40015 27.5016V27.4369L5.44402 27.4029C6.82621 26.4452 9.13864 24.8579 13.0132 19.3653" fill="url(#paint9_linear_1_7519)"/>
<path d="M51.6785 6.126C49.0501 5.24622 47.0635 4.56061 43.8263 4.2732C45.3182 3.23765 46.6422 2.36116 48.1648 2.36116C48.9656 2.36116 49.6502 2.66722 49.8081 3.22668C49.9551 3.73568 49.5536 3.95727 49.411 3.92327C49.2618 3.88487 49.1554 3.841 49.1916 3.70277C49.23 3.55688 49.117 3.18609 48.608 3.18609C48.0903 3.18609 47.895 3.66548 47.895 3.99457C47.895 4.32366 48.4171 4.87325 49.377 4.87325C50.3182 4.87325 50.8009 4.24578 50.7647 3.66548C51.2188 4.33025 51.4832 5.00269 51.6785 6.126Z" fill="url(#paint10_radial_1_7519)"/>
<path d="M40.052 2.67598C39.9697 3.17839 39.3916 3.65997 38.8069 3.65997C38.2211 3.65997 38.0456 3.56563 38.0456 3.56563C37.9568 3.70385 37.8789 3.81026 37.7867 3.95945C38.3177 3.9386 39.5496 3.9046 40.0432 3.9046C40.5358 3.9046 41.9015 3.9759 42.1955 3.99675C41.7205 2.88331 40.8045 1.34206 40.1716 1.34206C40.1496 1.34206 40.1222 1.33993 40.0882 1.33993C39.9401 1.33993 39.4271 1.7847 39.1523 2.17524C38.7912 2.68832 40.052 2.67598 40.052 2.67598Z" fill="url(#paint11_radial_1_7519)"/>
<path d="M72.8565 24.4976L72.862 23.0441C70.3818 20.7668 69.2124 18.4785 69.2124 18.4785C69.2124 18.4785 70.124 18.1351 70.5321 17.6163C70.7339 17.3278 70.8118 16.934 70.7778 16.6696C70.6988 16.1737 70.3127 15.9225 70.181 15.8655C69.8958 15.7426 69.366 15.464 68.7758 16.2758C68.1472 17.1544 68.3129 18.8218 68.3995 19.2058C68.3995 19.2058 69.5557 21.2187 72.8565 24.4976Z" fill="url(#paint12_radial_1_7519)"/>
<path d="M70.1121 18.7438C70.4466 19.3273 71.2902 20.7359 73.4238 22.7357C73.7782 23.068 74.6623 23.35 75.1637 22.7872C75.3512 22.5689 75.4752 22.2629 75.4565 21.9074C75.4324 21.4961 75.1856 21.0178 74.9377 20.8072C74.5077 20.4441 72.6746 18.5935 71.3714 17.1378C71.3352 17.4032 71.107 17.8475 71.107 17.8475C70.9271 18.0954 70.7077 18.452 70.1121 18.7438Z" fill="url(#paint13_linear_1_7519)"/>
<path d="M25.1678 23.9913V54.8625L39.9288 64.347L54.6886 54.8625L54.7106 24.0385C54.2378 23.6216 53.256 22.7079 52.487 22.2296H27.3026C26.6652 22.6771 25.3883 23.7544 25.1678 23.9913Z" stroke="black" stroke-width="0.559459" stroke-miterlimit="3.863"/>
<path d="M50.7507 75.0665C49.3015 75.4504 48.266 75.7751 45.8252 76.0713C45.8252 76.0713 45.9031 76.3181 46.434 76.2984C46.637 76.2852 46.6644 76.2348 46.7346 76.2227C46.8915 76.1942 47.1186 76.3532 47.0955 76.6176C47.0714 76.8041 46.9156 77.0356 46.3737 77.0356C45.8318 77.0356 45.201 76.5946 44.8818 76.1821C44.8818 76.1821 44.5582 76.2578 44.2214 76.2743C44.2214 76.2743 45.2647 77.7311 47.3138 77.7311C49.5637 77.7311 50.4018 75.7115 50.7507 75.0665Z" fill="url(#paint14_radial_1_7519)"/>
<path d="M1.60022 43.3781C1.60022 39.6538 4.62239 36.6251 8.35102 36.6251C12.0807 36.6251 15.1007 39.6538 15.1007 43.3781C15.1007 47.1089 12.0807 50.1311 8.35102 50.1311C4.62239 50.1311 1.60022 47.1089 1.60022 43.3781Z" fill="#FFE500" stroke="black" stroke-width="0.559459" stroke-miterlimit="3.863"/>
<path d="M3.14563 43.1269C3.14563 40.3033 5.47591 38.0069 8.35091 38.0069C11.2268 38.0069 13.5553 40.3033 13.5553 43.1269C13.5553 45.9555 11.2268 48.2469 8.35091 48.2469C5.47591 48.2469 3.14563 45.9555 3.14563 43.1269Z" fill="url(#paint15_radial_1_7519)"/>
<path d="M9.78499 48.0192C9.4888 48.1135 9.36046 47.9062 9.22553 47.757C8.70008 47.1526 8.56514 45.5433 8.56514 45.3305C8.56514 45.1166 8.64413 44.8818 8.79442 44.8763C10.0614 44.8522 10.9664 44.4847 11.7969 43.7947C12.6262 43.1168 12.986 42.339 13.0595 42.2008C13.1319 42.0472 13.3041 42.0747 13.3359 42.2875C13.371 42.4652 13.4379 42.7844 13.4379 43.13C13.4379 45.449 11.8747 47.3434 9.78499 48.0192ZM8.44777 48.2287C8.41157 48.2287 8.37098 48.2331 8.33698 48.2331C7.40345 48.2331 6.37558 47.8766 5.76676 47.5299C5.13599 47.1866 4.89905 45.5674 4.89905 44.7491C4.89905 42.0845 5.99163 40.4983 6.16934 40.1868C6.34267 39.8708 6.73319 39.8379 7.01951 39.9147C7.31569 40.0003 7.421 40.0518 7.76216 40.1528C7.93987 40.2109 8.30077 40.2844 8.57173 40.3327C8.84268 40.3974 9.13448 40.4544 8.95897 40.9601C8.78565 41.4669 8.19547 42.6846 8.13623 44.1282C8.07919 45.4347 8.25251 46.7324 8.5476 47.5299C8.74176 48.0455 8.74176 48.2386 8.44777 48.2287ZM4.5908 42.146C4.34178 42.0143 4.0423 41.3715 3.94138 41.1839C3.87337 41.049 3.87337 40.6629 3.971 40.4983C4.38785 39.7688 4.97913 39.0931 5.74043 38.7409C5.83367 38.7004 5.96421 38.6927 5.96421 38.9165C5.96421 39.036 6.02893 39.2225 6.03113 39.341C6.03113 39.4606 6.08159 39.7052 5.93021 39.8983C5.77115 40.0924 5.08992 41.3002 4.9155 41.977C4.88698 42.1284 4.84091 42.2875 4.5908 42.146ZM4.45038 46.422C3.74393 45.7243 3.24041 44.4606 3.24041 43.13C3.24041 42.6133 3.3172 42.1185 3.45432 41.649C3.45432 41.649 3.58048 41.4384 3.69018 41.6172C3.77464 41.7489 3.89092 41.8816 3.98526 42.0571C4.09057 42.2326 4.63687 42.6484 4.5908 42.9874C4.39992 44.2324 4.57106 45.8867 4.63028 46.1653C4.68294 46.4406 4.60725 46.558 4.45038 46.422ZM6.68053 38.3065C7.20379 38.1332 7.76216 38.0356 8.33698 38.0356C9.21127 38.0356 10.0603 38.1947 10.769 38.6466C10.9511 38.7651 11.0026 38.9033 11.0026 39.1084C11.0026 39.7765 9.95831 40.0003 9.26721 40.0003C8.57173 40.0003 7.71609 39.7249 7.11055 39.533C6.50722 39.3443 6.37558 38.9954 6.37558 38.8364C6.37558 38.6839 6.49295 38.368 6.68053 38.3065ZM11.3954 39.0492C11.4886 39.1249 11.7354 39.3245 11.7354 39.3245C12.2225 39.7688 12.6624 40.2756 12.918 40.8833C13.2372 41.649 12.2466 42.8085 11.9559 43.0762C10.6439 44.3081 9.82229 44.2851 9.35717 44.352C8.89205 44.42 8.59037 44.1282 8.60244 43.7783C8.63206 42.7537 9.36155 40.9876 9.57108 40.6552C9.70491 40.4413 9.93747 40.3085 9.93747 40.3085C10.4245 40.1736 10.8973 39.9707 11.142 39.692C11.3811 39.409 11.3954 39.0492 11.3954 39.0492ZM8.38743 37.7032C5.25117 37.7032 2.71167 40.2438 2.71167 43.3779C2.71167 46.5141 5.25117 49.0536 8.38743 49.0536C11.5215 49.0536 14.0665 46.5141 14.0665 43.3779C14.0665 40.2438 11.5215 37.7032 8.38743 37.7032Z" fill="#DA020E"/>
<path d="M64.8982 43.3649C64.8982 39.6407 67.9204 36.6229 71.649 36.6229C75.3798 36.6229 78.3998 39.6407 78.3998 43.3649C78.3998 47.0957 75.3798 50.119 71.649 50.119C67.9204 50.119 64.8982 47.0957 64.8982 43.3649Z" fill="#FFE500" stroke="black" stroke-width="0.559459" stroke-miterlimit="3.863"/>
<path d="M75.6024 46.3988C75.4544 46.5447 75.371 46.4174 75.4335 46.1443C75.4851 45.8733 75.6573 44.2136 75.4653 42.9685C75.4182 42.6307 75.9678 42.216 76.0687 42.0383C76.1696 41.8639 76.2848 41.7279 76.366 41.6006C76.4789 41.4163 76.5985 41.6226 76.5985 41.6226C76.7433 42.0976 76.8135 42.5945 76.8135 43.109C76.8135 44.444 76.3034 45.7033 75.6024 46.3988ZM75.145 41.9593C74.9695 41.2847 74.2839 40.0714 74.1292 39.8784C73.9734 39.6919 74.0228 39.444 74.025 39.3244C74.025 39.2059 74.093 39.0161 74.093 38.8933C74.093 38.6794 74.2225 38.6838 74.3146 38.7243C75.0803 39.0765 75.6683 39.7423 76.0895 40.4784C76.1828 40.6463 76.1849 41.0302 76.1158 41.1607C76.0171 41.3494 75.7198 41.9922 75.4653 42.1283C75.2108 42.2676 75.1735 42.1052 75.145 41.9593ZM74.2927 47.5111C73.6827 47.8523 72.6549 48.2121 71.717 48.2121H71.6083C71.3198 48.2198 71.3133 48.019 71.5107 47.5057C71.797 46.7147 71.9758 45.4115 71.9166 44.1083C71.8574 42.6581 71.2749 41.4536 71.0939 40.9435C70.9184 40.4378 71.2112 40.3764 71.4855 40.3193C71.7575 40.2656 72.1173 40.1866 72.2961 40.1296C72.6318 40.0275 72.7404 39.976 73.0366 39.8915C73.3251 39.8169 73.7134 39.8542 73.8901 40.1625C74.0634 40.4784 75.1582 42.0745 75.1582 44.7325C75.1582 45.5465 74.919 47.1634 74.2927 47.5111ZM70.2744 47.9982C68.1792 47.3192 66.6193 45.4258 66.6193 43.109C66.6193 42.7678 66.6862 42.4519 66.7136 42.2676C66.7542 42.0548 66.9144 42.0197 66.9945 42.1765C67.068 42.3191 67.4321 43.0958 68.2571 43.7759C69.093 44.4604 69.9892 44.8345 71.2639 44.8608C71.4186 44.8685 71.491 45.0956 71.491 45.3139C71.491 45.53 71.3604 47.136 70.8372 47.736C70.6978 47.8896 70.564 48.1002 70.2744 47.9982ZM67.1436 40.8656C67.3927 40.2579 67.8347 39.7423 68.3218 39.3079C68.3218 39.3079 68.5631 39.1039 68.6564 39.0326C68.6564 39.0326 68.6761 39.3957 68.9186 39.6677C69.1599 39.942 69.6283 40.157 70.1154 40.2853C70.1154 40.2853 70.3446 40.4247 70.4817 40.6386C70.6978 40.9611 71.4219 42.725 71.4537 43.7573C71.4624 44.1083 71.1641 44.4001 70.6979 44.3332C70.2305 44.2707 69.4111 44.2849 68.1002 43.0596C67.8106 42.7908 66.82 41.6335 67.1436 40.8656ZM69.285 38.6278C70.0035 38.1737 70.8416 38.0146 71.717 38.0146C72.2962 38.0146 72.8468 38.1133 73.3745 38.2866C73.5687 38.347 73.6827 38.6596 73.6827 38.8165C73.6827 38.9712 73.5544 39.3244 72.9467 39.5142C72.3411 39.7006 71.4888 39.9793 70.7944 39.9793C70.0956 39.9793 69.0546 39.7522 69.0546 39.0874C69.0546 38.8867 69.105 38.7408 69.285 38.6278ZM71.6632 37.6888C68.5302 37.6888 65.9896 40.2305 65.9896 43.3569C65.9896 46.5008 68.5302 49.0327 71.6632 49.0327C74.8016 49.0327 77.3423 46.5008 77.3423 43.3569C77.3423 40.2305 74.8016 37.6888 71.6632 37.6888Z" fill="#DA020E"/>
<path d="M66.5206 43.102C66.5206 40.2784 68.8509 37.982 71.7259 37.982C74.6017 37.982 76.9303 40.2784 76.9303 43.102C76.9303 45.9306 74.6017 48.222 71.7259 48.222C68.8509 48.222 66.5206 45.9306 66.5206 43.102Z" fill="url(#paint16_radial_1_7519)"/>
</g>
<defs>
<filter id="filter0_f_1_7519" x="22.1857" y="9.80326" width="35.507" height="57.7774" filterUnits="userSpaceOnUse" color-interpolation-filters="sRGB">
<feFlood flood-opacity="0" result="BackgroundImageFix"/>
<feBlend mode="normal" in="SourceGraphic" in2="BackgroundImageFix" result="shape"/>
<feGaussianBlur stdDeviation="0.824378" result="effect1_foregroundBlur_1_7519"/>
</filter>
<radialGradient id="paint0_radial_1_7519" cx="0" cy="0" r="1" gradientUnits="userSpaceOnUse" gradientTransform="translate(40.1152 77.3103) scale(2.6452 1.96637)">
<stop stop-color="#FFE500"/>
<stop offset="0.5" stop-color="#FFE500"/>
<stop offset="1" stop-color="#E15007"/>
</radialGradient>
<radialGradient id="paint1_radial_1_7519" cx="0" cy="0" r="1" gradientUnits="userSpaceOnUse" gradientTransform="translate(32.8488 76.3988) scale(2.79708 2.51495)">
<stop stop-color="#FFE500"/>
<stop offset="0.5" stop-color="#FFE500"/>
<stop offset="1" stop-color="#E15007"/>
</radialGradient>
<linearGradient id="paint2_linear_1_7519" x1="39.1671" y1="33.8526" x2="39.1671" y2="48.537" gradientUnits="userSpaceOnUse">
<stop stop-color="#8F0904"/>
<stop offset="0.249601" stop-color="#B40509"/>
<stop offset="1" stop-color="#DA020E"/>
</linearGradient>
<radialGradient id="paint3_radial_1_7519" cx="0" cy="0" r="1" gradientUnits="userSpaceOnUse" gradientTransform="translate(31.5269 4.40857) scale(3.1979 3.04486)">
<stop stop-color="#FFE500"/>
<stop offset="0.5" stop-color="#FFE500"/>
<stop offset="1" stop-color="#E15007"/>
</radialGradient>
<radialGradient id="paint4_radial_1_7519" cx="0" cy="0" r="1" gradientUnits="userSpaceOnUse" gradientTransform="translate(8.28051 20.6413) rotate(-60.273) scale(4.99004 4.38963)">
<stop stop-color="#FFE500"/>
<stop offset="0.5" stop-color="#FFE500"/>
<stop offset="1" stop-color="#E15007"/>
</radialGradient>
<linearGradient id="paint5_linear_1_7519" x1="7.61003" y1="18.6563" x2="8.82304" y2="19.9896" gradientUnits="userSpaceOnUse">
<stop stop-color="#FFE500"/>
<stop offset="0.5" stop-color="#FFE500"/>
<stop offset="1" stop-color="#E15007"/>
</linearGradient>
<linearGradient id="paint6_linear_1_7519" x1="10.3653" y1="51.7525" x2="18.744" y2="61.3692" gradientUnits="userSpaceOnUse">
<stop stop-color="#740703"/>
<stop offset="1" stop-color="#DA020E" stop-opacity="0"/>
</linearGradient>
<linearGradient id="paint7_linear_1_7519" x1="69.3605" y1="51.7525" x2="60.9818" y2="61.3691" gradientUnits="userSpaceOnUse">
<stop stop-color="#740703"/>
<stop offset="1" stop-color="#DA020E" stop-opacity="0"/>
</linearGradient>
<linearGradient id="paint8_linear_1_7519" x1="72.4694" y1="34.0553" x2="67.9349" y2="29.7887" gradientUnits="userSpaceOnUse">
<stop stop-color="#740703"/>
<stop offset="1" stop-color="#DA020E" stop-opacity="0"/>
</linearGradient>
<linearGradient id="paint9_linear_1_7519" x1="7.39895" y1="34.0553" x2="12.2001" y2="28.9887" gradientUnits="userSpaceOnUse">
<stop stop-color="#740703"/>
<stop offset="1" stop-color="#DA020E" stop-opacity="0"/>
</linearGradient>
<radialGradient id="paint10_radial_1_7519" cx="0" cy="0" r="1" gradientUnits="userSpaceOnUse" gradientTransform="translate(48.3416 4.40857) rotate(180) scale(3.1979 3.04486)">
<stop stop-color="#FFE500"/>
<stop offset="0.5" stop-color="#FFE500"/>
<stop offset="1" stop-color="#E15007"/>
</radialGradient>
<radialGradient id="paint11_radial_1_7519" cx="0" cy="0" r="1" gradientUnits="userSpaceOnUse" gradientTransform="translate(39.9342 2.92761) scale(2.41597 2.30924)">
<stop stop-color="#FFE500"/>
<stop offset="0.5" stop-color="#FFE500"/>
<stop offset="1" stop-color="#E15007"/>
</radialGradient>
<radialGradient id="paint12_radial_1_7519" cx="0" cy="0" r="1" gradientUnits="userSpaceOnUse" gradientTransform="translate(71.5876 20.6413) rotate(-119.727) scale(4.99003 4.38963)">
<stop stop-color="#FFE500"/>
<stop offset="0.5" stop-color="#FFE500"/>
<stop offset="1" stop-color="#E15007"/>
</radialGradient>
<linearGradient id="paint13_linear_1_7519" x1="72.2584" y1="18.6563" x2="71.0454" y2="19.9896" gradientUnits="userSpaceOnUse">
<stop stop-color="#FFE500"/>
<stop offset="0.5" stop-color="#FFE500"/>
<stop offset="1" stop-color="#E15007"/>
</linearGradient>
<radialGradient id="paint14_radial_1_7519" cx="0" cy="0" r="1" gradientUnits="userSpaceOnUse" gradientTransform="translate(47.486 76.3988) rotate(180) scale(2.79708 2.51495)">
<stop stop-color="#FFE500"/>
<stop offset="0.5" stop-color="#FFE500"/>
<stop offset="1" stop-color="#E15007"/>
</radialGradient>
<radialGradient id="paint15_radial_1_7519" cx="0" cy="0" r="1" gradientUnits="userSpaceOnUse" gradientTransform="translate(8.35049 43.1269) scale(5.20486 5.11998)">
<stop stop-color="#DA030E" stop-opacity="0"/>
<stop offset="0.875" stop-color="#DA020E" stop-opacity="0"/>
<stop offset="1" stop-color="#DA020E"/>
</radialGradient>
<radialGradient id="paint16_radial_1_7519" cx="0" cy="0" r="1" gradientUnits="userSpaceOnUse" gradientTransform="translate(71.7255 43.102) scale(5.20486 5.11998)">
<stop stop-color="#DA030E" stop-opacity="0"/>
<stop offset="0.875" stop-color="#DA020E" stop-opacity="0"/>
<stop offset="1" stop-color="#DA020E"/>
</radialGradient>
<clipPath id="clip0_1_7519">
<rect width="76.7995" height="78.3604" fill="white" transform="translate(1.60022 0.819807)"/>
</clipPath>
</defs>
</svg>
